<svg xmlns="http://www.w3.org/2000/svg" xmlns:xlink="http://www.w3.org/1999/xlink" width="3122.88" height="1660.348" viewBox="0 0 3122.88 1660.348"><defs><style>.a{fill:url(#a);}.b{opacity:0.4;fill:url(#b);}.c{fill:#4487ff;}.d{opacity:0.2;clip-path:url(#c);}.d,.f,.g{mix-blend-mode:multiply;isolation:isolate;}.e{stroke:#707070;fill:url(#d);}.f{opacity:0.15;clip-path:url(#e);}.g{fill:url(#f);}</style><linearGradient id="a" x1="0.671" y1="0.047" x2="0.475" y2="1.194" gradientUnits="objectBoundingBox"><stop offset="0" stop-color="#4487ff"/><stop offset="1" stop-color="#224480"/></linearGradient><linearGradient id="b" x1="0.577" y1="0.526" x2="0.385" y2="0.654" gradientUnits="objectBoundingBox"><stop offset="0" stop-color="#3060b5"/><stop offset="1" stop-color="#224480"/></linearGradient><clipPath id="c"><path class="a" d="M10143.2,1979.2s247.2-412.8,909.6-291.2,876-80,965.6-249.6S12319.2,840,12604,932.8s416,912,416,912-12.8,406.4-230.4,361.6-1338-477.2-1971.6,10.8-266,446.4-728.4,97.6S10143.2,1979.2,10143.2,1979.2Z" transform="translate(-10492 -65)"/></clipPath><linearGradient id="d" x1="0.5" x2="0.5" y2="1" gradientUnits="objectBoundingBox"><stop offset="0" stop-color="#3060b5"/><stop offset="1" stop-color="#18305b"/></linearGradient><clipPath id="e"><path class="b" d="M10143.2,1979.2s247.2-412.8,909.6-291.2,876-80,965.6-249.6S12319.2,840,12604,932.8s416,912,416,912-12.8,406.4-230.4,361.6-1338-477.2-1971.6,10.8-266,446.4-728.4,97.6S10143.2,1979.2,10143.2,1979.2Z" transform="translate(-10492 -65)"/></clipPath><linearGradient id="f" x1="0.5" y1="0" x2="0.5" y2="1" xlink:href="#a"/></defs><g transform="translate(594.88 -854.804)"><path class="c" d="M10143.2,1979.2s247.2-412.8,909.6-291.2,876-80,965.6-249.6S12319.2,840,12604,932.8s416,912,416,912-12.8,406.4-230.4,361.6-1338-477.2-1971.6,10.8-266,446.4-728.4,97.6S10143.2,1979.2,10143.2,1979.2Z" transform="translate(-10492 -65)"/><g class="d"><path class="e" d="M12412,883.03s-135.03,72.727-212.606,438.788-246.061,467.273-752.728,423.636-848.484-198.788-1175.758,65.454-71.515,788.485-71.515,788.485l2637.576,147.879-31.517-1064.242Z" transform="translate(-10492)"/></g><g class="f"><path class="g" d="M10248.484,2109.091s584.241-426.667,1442.424-310.3,979.395,523.637,979.395,523.637l-2472.728,252.121Z" transform="translate(-10492)"/></g></g></svg>