<svg xmlns="http://www.w3.org/2000/svg" width="45.031" height="45.041" viewBox="0 0 45.031 45.041"><defs><style>.a{opacity:0.3;}.b{fill:#00225c;}</style></defs><g class="a" transform="translate(0 0)"><path class="b" d="M276.309,180.274a.935.935,0,1,0,.661-.274A.942.942,0,0,0,276.309,180.274Zm0,0" transform="translate(-251.858 -164.206)"/><path class="b" d="M75.31,109.5a.936.936,0,1,0,.661.274A.943.943,0,0,0,75.31,109.5Zm0,0" transform="translate(-67.466 -99.892)"/><path class="b" d="M42.732,16.843a4.338,4.338,0,0,0-3.822.392l-1.237.782a7.981,7.981,0,0,0-5.49-2.183H29.137a.88.88,0,0,0,0,1.759h3.045A6.25,6.25,0,0,1,38.149,25.7l-.2.646a6.374,6.374,0,0,0,.16,4.233,4.567,4.567,0,0,1,.324,1.694V43.282H35.988l.525-.748a.88.88,0,0,0,.159-.505V35.812a.88.88,0,0,0-.523-.8,13.363,13.363,0,0,1-6.439-6.08l-.019-.036a.88.88,0,0,0-1.565.8l.019.036q.2.393.427.773H22.889a3.378,3.378,0,0,0,.09-.771v-11.9A3.439,3.439,0,0,0,21.7,15.161L35.357,1.5A.88.88,0,0,0,34.113.258L19.95,14.421a3.432,3.432,0,0,0-.414-.026,1.826,1.826,0,0,0-.519.076L19,14.454A4.549,4.549,0,0,1,17.948,12.7L15.977,6.581a2.538,2.538,0,0,0-2.423-1.765H10.329a2.556,2.556,0,0,0-1.572.543L5.051,8.269H2.937A2.436,2.436,0,0,0,.611,11.428l.6,1.935a3.5,3.5,0,0,0,3.356,2.472h2.4l1.5,2.763A7.4,7.4,0,0,1,9.3,21.051a2.106,2.106,0,0,0-.688,1.558v1.056a2.108,2.108,0,0,0,.794,1.648,9.234,9.234,0,0,0,1.668,4.013l1.187,1.62v10.2l-.885,1.22a1.684,1.684,0,0,0,1.363,2.673h3.921a.88.88,0,0,0,.88-.88V38.8A12.5,12.5,0,0,1,18.969,33a1.9,1.9,0,0,0,.638.11,3.359,3.359,0,0,0,2.225-.842h7.959a15.14,15.14,0,0,0,5.122,4.106v5.379l-.386.551a1.74,1.74,0,0,0,1.425,2.739h3.359a.88.88,0,0,0,.88-.88V32.276a6.33,6.33,0,0,0-.448-2.343,4.609,4.609,0,0,1-.116-3.06l.2-.647a8,8,0,0,0,.311-3.284,1.659,1.659,0,0,1,.61,1.285V28.25a8.2,8.2,0,0,0,3.384,6.625.88.88,0,0,0,1.4-.713V20.883a4.336,4.336,0,0,0-2.8-4.04ZM10.992,20.5c-.008-.046-.018-.092-.026-.138l5.87-5.87a6.3,6.3,0,0,0,.9,1.187l.042.042a1.834,1.834,0,0,0-.074.511V20.5ZM14.3,7.121l.68,2.112-1.6,1.93a.756.756,0,0,1-1.338-.483v-4.1h1.513a.784.784,0,0,1,.748.545ZM8.268,14.534a.88.88,0,0,0-.773-.459H4.568a1.747,1.747,0,0,1-1.676-1.234l-.6-1.935a.677.677,0,0,1,.646-.877H5.355A.88.88,0,0,0,5.9,9.841l3.946-3.1a.789.789,0,0,1,.437-.166v4.1a2.516,2.516,0,0,0,4.451,1.608l.89-1.07.487,1.511L10.37,18.466q-.158-.36-.348-.71ZM15.779,38.8v4.478H12.886l.966-1.331a.881.881,0,0,0,.168-.517V30.658a.879.879,0,0,0-.17-.52l-1.357-1.852a7.461,7.461,0,0,1-1.195-2.51h6.4V31.2a1.9,1.9,0,0,0,.04.388A14.26,14.26,0,0,0,15.779,38.8Zm3.681-7.6V24.9a.88.88,0,0,0-.88-.88H10.723a.352.352,0,0,1-.352-.352V22.608a.352.352,0,0,1,.352-.352H18.58a.88.88,0,0,0,.88-.88V16.231a.947.947,0,0,0,.082-.076,1.686,1.686,0,0,1,1.678,1.684v11.9a1.615,1.615,0,0,1-1.613,1.613.148.148,0,0,1-.147-.147Zm24.31.867a6.432,6.432,0,0,1-1.261-3.817V24.227a3.427,3.427,0,0,0-2.9-3.382,8.025,8.025,0,0,0-.785-1.474l1.026-.648a2.555,2.555,0,0,1,3.921,2.16Zm0,0" transform="translate(-0.499 0)"/></g></svg>