<svg xmlns="http://www.w3.org/2000/svg" width="45.031" height="45.029" viewBox="0 0 45.031 45.029"><defs><style>.a{opacity:0.3;isolation:isolate;}.b{fill:#00225c;}</style></defs><g class="a" transform="translate(0 0)"><g transform="translate(0 0)"><path class="b" d="M43.868,19.628,25.314,1.162a3.957,3.957,0,0,0-5.594,0L1.16,19.63a3.958,3.958,0,0,0,4.435,6.4L7.927,43.883a1.319,1.319,0,0,0,1.308,1.148H35.8A1.319,1.319,0,0,0,37.1,43.883l2.332-17.849a3.958,3.958,0,0,0,4.432-6.4ZM10.394,42.393l-.345-2.638h5.285l.326,2.638ZM28.14,30.121,26.626,42.393H18.317L16.8,30.119a5.735,5.735,0,0,1,5.712-6.371A5.671,5.671,0,0,1,28.14,30.121Zm6.5,12.271H29.284l.326-2.638h5.373Zm.69-5.277H29.935l.823-6.669a8.346,8.346,0,1,0-16.573,0l.823,6.672H9.7L7.99,24,22.515,9.551,37.041,24ZM42,23.361a1.317,1.317,0,0,1-1.868,0L23.446,6.755a1.319,1.319,0,0,0-1.861,0L4.891,23.361A1.319,1.319,0,0,1,3.024,21.5L21.583,3.027a1.318,1.318,0,0,1,1.867,0L42,21.5A1.321,1.321,0,0,1,42,23.361Z" transform="translate(0 -0.002)"/></g><g transform="translate(21.196 15.83)"><circle class="b" cx="1.319" cy="1.319" r="1.319"/></g></g></svg>