<svg xmlns="http://www.w3.org/2000/svg" width="39.028" height="45.031" viewBox="0 0 39.028 45.031"><defs><style>.a{opacity:0.3;isolation:isolate;}.b{fill:#00225c;}</style></defs><g class="a" transform="translate(0 0)"><path class="b" d="M48.392,23.733v-4.5a2.251,2.251,0,0,1,2.252-2.252,2.252,2.252,0,1,0,0-4.5,6.762,6.762,0,0,0-6.755,6.755v4.5a2.254,2.254,0,0,1-2.252,2.252v-3A11.257,11.257,0,0,0,30.378,11.724H28.522c.73-2.241.264-4.746-.391-7.158a1.22,1.22,0,0,0-1.976-.829.65.65,0,0,0-.05.044L24.083,5.72H22.435L20.412,3.781c-.016-.015-.033-.03-.05-.044a1.22,1.22,0,0,0-1.977.847c-.715,3.091-1.29,6.307-.006,8.824-.026,4.137.991,6.932,3.1,8.528L22.634,26a2.255,2.255,0,0,0-2.013,2.239v.751a6.762,6.762,0,0,0-6.755,6.755v7.505a.751.751,0,0,0,.751.751h1.5V47.75a.751.751,0,0,0,.751.751h4.5a.751.751,0,0,0,.736-.6l.78-3.9H40.871l.78,3.9a.751.751,0,0,0,.736.6h4.5a.751.751,0,0,0,.751-.751V44h1.5a.751.751,0,0,0,.751-.751V35.742a6.765,6.765,0,0,0-4.531-6.377A6.753,6.753,0,0,0,48.392,23.733Zm-3,0v-4.5a5.26,5.26,0,0,1,5.254-5.254.751.751,0,1,1,0,1.5,3.752,3.752,0,0,0-3.753,3.754v4.5a5.26,5.26,0,0,1-5.254,5.254h-.946a4.122,4.122,0,0,0,.789-1.5h.157A3.757,3.757,0,0,0,45.39,23.733Zm-23.267,4.5a.751.751,0,0,1,.751-.751h.751a.751.751,0,0,0,.722-.956l-1.491-5.254a.751.751,0,0,0-.3-.413c-1.856-1.282-2.732-3.777-2.678-7.628a.749.749,0,0,0-.094-.374c-1.007-1.82-.767-4.274-.015-7.614l1.841,1.764a.751.751,0,0,0,.519.209h2.252a.751.751,0,0,0,.519-.209l1.853-1.776c.641,2.429,1.036,4.915-.03,6.881a.751.751,0,0,0,.66,1.108h2.992a9.756,9.756,0,0,1,9.757,9.758V26.36a2.63,2.63,0,0,1-2.627,2.627H27.377V20.731a.751.751,0,1,0-1.5,0v8.256H22.123ZM20.757,47H17.62V44h3.738ZM46.14,47H43l-.6-3H46.14ZM15.368,42.5v-6H48.392v6Zm27.77-12.009a5.261,5.261,0,0,1,5.2,4.5H15.423a5.261,5.261,0,0,1,5.2-4.5Z" transform="translate(-13.867 -3.47)"/><circle class="b" cx="0.751" cy="0.751" r="0.751" transform="translate(6.755 6.003)"/><circle class="b" cx="0.751" cy="0.751" r="0.751" transform="translate(10.507 6.003)"/></g></svg>