<svg xmlns="http://www.w3.org/2000/svg" width="45.031" height="39.356" viewBox="0 0 45.031 39.356"><defs><style>.a{opacity:0.3;isolation:isolate;}.b{fill:#00225c;}</style></defs><g class="a" transform="translate(0 0)"><g transform="translate(0)"><path class="b" d="M37.411,41.652a10.964,10.964,0,0,0-18.463,0l-4.883,7.617a6.94,6.94,0,0,0,8.636,10.1l.09-.04a13.643,13.643,0,0,1,10.866.04,6.9,6.9,0,0,0,2.785.589A6.99,6.99,0,0,0,38,59.78a6.941,6.941,0,0,0,4.3-10.512Zm2.308,14.158a4.276,4.276,0,0,1-5,1.142,16.287,16.287,0,0,0-13.079,0l-.059.026a4.3,4.3,0,0,1-5.294-6.283l4.883-7.617a8.325,8.325,0,0,1,14.018,0l4.882,7.617a4.276,4.276,0,0,1-.352,5.117Zm0,0" transform="translate(-7.298 -20.601)"/><path class="b" d="M8.082,32.238a5.324,5.324,0,0,0,3.107-3.3,6.878,6.878,0,0,0-.122-4.742,6.882,6.882,0,0,0-3.09-3.6,5.324,5.324,0,0,0-4.513-.363C.548,21.359-.791,24.964.481,28.275a6.43,6.43,0,0,0,5.783,4.3,5.041,5.041,0,0,0,1.818-.337ZM2.944,27.327c-.75-1.951-.091-4.027,1.469-4.627a2.449,2.449,0,0,1,.884-.163,2.977,2.977,0,0,1,1.421.382A4.24,4.24,0,0,1,8.6,25.148,4.237,4.237,0,0,1,8.7,28.066a2.729,2.729,0,0,1-1.564,1.708h0c-1.558.6-3.438-.5-4.19-2.447Zm0,0" transform="translate(0 -11.197)"/><path class="b" d="M31.642,15.074c3.647,0,6.614-3.381,6.614-7.536S35.289,0,31.642,0s-6.614,3.381-6.614,7.538S28,15.074,31.642,15.074Zm0-12.434c2.192,0,3.975,2.2,3.975,4.9s-1.783,4.9-3.975,4.9-3.974-2.2-3.974-4.9,1.783-4.9,3.974-4.9Zm0,0" transform="translate(-14.086 0)"/><path class="b" d="M61.156,21.483h0a5.391,5.391,0,0,0,1.7.275A6.856,6.856,0,0,0,69.1,16.847a7.391,7.391,0,0,0-.105-5.1,5.591,5.591,0,0,0-8.29-2.755,7.391,7.391,0,0,0-3.136,4.021c-1.2,3.613.408,7.412,3.586,8.469Zm-1.082-7.636a4.753,4.753,0,0,1,2-2.6,2.958,2.958,0,0,1,4.475,1.487,4.753,4.753,0,0,1,.047,3.276c-.742,2.232-2.809,3.561-4.607,2.964s-2.656-2.9-1.914-5.131Zm0,0" transform="translate(-32.177 -4.558)"/><path class="b" d="M85.563,35.412h0c-2.515-1.858-6.277-1.053-8.386,1.8s-1.778,6.682.734,8.541a5.171,5.171,0,0,0,3.106,1,6.687,6.687,0,0,0,5.281-2.8C88.4,41.1,88.075,37.272,85.563,35.412Zm-1.388,6.971c-1.245,1.681-3.351,2.239-4.695,1.243s-1.424-3.17-.182-4.85a4.052,4.052,0,0,1,3.143-1.736,2.579,2.579,0,0,1,1.552.493c1.342.995,1.423,3.17.182,4.849Zm0,0" transform="translate(-42.654 -19.367)"/></g></g></svg>