<svg xmlns="http://www.w3.org/2000/svg" width="29.207" height="34.419" viewBox="0 0 29.207 34.419"><defs><style>.a{fill:#fd5d40;}</style></defs><g transform="translate(0)"><path class="a" d="M155.509,184.551a.693.693,0,0,0,.37-.479c.233-3.982-3.056-9.291-4.24-11.063a7.4,7.4,0,0,0-2.737,1.93s-1.71,1.148-2.317,6.724A7.71,7.71,0,0,0,155.509,184.551Z" transform="translate(-140.141 -172.492)"/><path class="a" d="M126.237,174.117,121,172.838a2.336,2.336,0,0,0-1.635-1.784c-1.083-.38-4.815-2.524-8.487-1.767,1.388,2.113,4.476,7.322,4.232,11.488a1.834,1.834,0,0,1-1.183,1.539,9.687,9.687,0,0,1-2.994.477,8.689,8.689,0,0,1-6.442-2.833c-.042.715-.066,1.487-.071,2.324-.024,4.313-5.5,8.4-5.5,8.4l-.73,1.512a19.8,19.8,0,0,0,6.723,7.982,12.8,12.8,0,0,1,1.246-4.887,10.579,10.579,0,0,1,3.533-4.123c.174-4.754,1.718-6.144,3-6.461a1.353,1.353,0,0,1,1.14.233,1.646,1.646,0,0,1,.638,1.232,3.962,3.962,0,0,0,1.18,2.531,11.615,11.615,0,0,1,1.657.273l.048-.448.4-3.873a1.549,1.549,0,0,1,1.306-1.3c2.47-.36,7.972-1.823,8.33-7.768A1.539,1.539,0,0,0,126.237,174.117Zm-8.164,1.381a.669.669,0,1,1,.669-.669A.669.669,0,0,1,118.072,175.5Z" transform="translate(-98.183 -169.127)"/><path class="a" d="M171.545,302.533c-.2-1.685-2.577-3.074-5.651-3.272a4.941,4.941,0,0,1-1.742-3.421c-.018-.328-.263-.654-.581-.575-.821.2-2.216,1.257-2.286,6.073,0,0-4.468,2.254-4.791,8.753a19.533,19.533,0,0,0,9.764,2.789l-.04-.931a.871.871,0,0,1,.53-.8l3.806-1.427a2.88,2.88,0,0,0,2.527-1.24,9.128,9.128,0,0,1,.982-1.452.607.607,0,0,0-.028-.836C173.256,305.441,171.693,303.792,171.545,302.533Zm-2.258,1.631a.669.669,0,1,1,.67-.668A.668.668,0,0,1,169.288,304.164Z" transform="translate(-148.73 -278.461)"/></g></svg>